<svg id="图层_1" data-name="图层 1" xmlns="http://www.w3.org/2000/svg" viewBox="0 0 149.01 149.01"><defs><style>.cls-1{fill:#fff;}.cls-2{fill:#84dfde;}</style></defs><title>3</title><rect class="cls-1" width="149.01" height="149.01" rx="33.49"/><path class="cls-2" d="M86.1,62.89a5.81,5.81,0,0,1-5.81-5.81V39.69h0a5.81,5.81,0,0,1,5.81-5.81l23.24,23.2h0a5.81,5.81,0,0,1-5.81,5.81Z"/><path class="cls-2" d="M84.8,90.49H83.7v3.39h.8a2.69,2.69,0,0,0,1.67-.44,1.56,1.56,0,0,0,.55-1.29,1.58,1.58,0,0,0-.46-1.26A2.2,2.2,0,0,0,84.8,90.49Z"/><path class="cls-2" d="M80.29,68.7a5.82,5.82,0,0,1-5.81-5.81v-29h-29a5.81,5.81,0,0,0-5.81,5.81v69.63a5.81,5.81,0,0,0,5.81,5.81h58a5.81,5.81,0,0,0,5.81-5.81V68.7ZM66.44,99.16a5.43,5.43,0,0,1-3.41.92,8.34,8.34,0,0,1-3.3-.62v-2a7.63,7.63,0,0,0,1.46.55,6.19,6.19,0,0,0,1.58.21,3.08,3.08,0,0,0,1.77-.41,1.49,1.49,0,0,0,.57-1.3,1.17,1.17,0,0,0-.66-1.14A4.77,4.77,0,0,0,62.36,95h-.87V93.13h.88a4.11,4.11,0,0,0,1.94-.35,1.26,1.26,0,0,0,.62-1.19c0-.87-.55-1.3-1.63-1.3a3.54,3.54,0,0,0-1.14.19,5.41,5.41,0,0,0-1.3.65l-1.11-1.67a6.19,6.19,0,0,1,3.72-1.12,4.78,4.78,0,0,1,2.8.72,2.29,2.29,0,0,1,1,2,2.66,2.66,0,0,1-.65,1.82,3.37,3.37,0,0,1-1.82,1v0a3.62,3.62,0,0,1,2.1.84,2.35,2.35,0,0,1,.71,1.8A3,3,0,0,1,66.44,99.16Zm12.12.27a13.35,13.35,0,0,1-2.08.51,14.31,14.31,0,0,1-2,.14,5,5,0,0,1-4-1.52,6.31,6.31,0,0,1-1.37-4.36,5.72,5.72,0,0,1,1.59-4.31,6,6,0,0,1,4.38-1.55,8.47,8.47,0,0,1,3.39.7L77.74,91a5.7,5.7,0,0,0-2.6-.63,3.23,3.23,0,0,0-2.52,1.06,4.08,4.08,0,0,0-.94,2.83,4.53,4.53,0,0,0,.76,2.84,2.62,2.62,0,0,0,2.21,1,8.14,8.14,0,0,0,1.54-.16V95.53H74v-2h4.53ZM88,94.89a4.94,4.94,0,0,1-3.28,1h-1v4.06H81.28V88.5h3.65a4.86,4.86,0,0,1,3.16.9,3.25,3.25,0,0,1,1.08,2.67A3.54,3.54,0,0,1,88,94.89Z"/></svg>