<svg id="图层_1" data-name="图层 1" xmlns="http://www.w3.org/2000/svg" viewBox="0 0 149.01 149.01"><defs><style>.cls-1{fill:#fff;}.cls-2{fill:#84dfde;}</style></defs><title>1</title><rect class="cls-1" width="149.01" height="149.01" rx="33.49"/><path class="cls-2" d="M86.1,62.89a5.81,5.81,0,0,1-5.81-5.81V39.69h0a5.81,5.81,0,0,1,5.81-5.81l23.24,23.2h0a5.81,5.81,0,0,1-5.81,5.81Z"/><path class="cls-2" d="M79.5,90.49H78.4v3.39h.79a2.67,2.67,0,0,0,1.67-.44,1.57,1.57,0,0,0,.56-1.29A1.59,1.59,0,0,0,81,90.89,2.17,2.17,0,0,0,79.5,90.49Z"/><path class="cls-2" d="M89.08,92.52,87,95.68h2.75V93.74c0-.32,0-.79,0-1.4s0-1,.06-1.07h-.06A9.09,9.09,0,0,1,89.08,92.52Z"/><path class="cls-2" d="M80.29,68.7a5.82,5.82,0,0,1-5.81-5.81v-29h-29a5.81,5.81,0,0,0-5.81,5.81v69.63a5.81,5.81,0,0,0,5.81,5.81h58a5.81,5.81,0,0,0,5.81-5.81V68.7ZM73.1,99.92H70.84v-5.4c0-.26,0-.55,0-.88S70.9,92.42,71,91h-.07l-3,8.94H65.72L63,91H62.9c.1,1.83.15,3,.15,3.65v5.31H60.89V88.5h3.29l2.71,8.74h0L69.8,88.5h3.3Zm9.61-5a4.94,4.94,0,0,1-3.28,1h-1v4.06H76V88.5h3.65a4.82,4.82,0,0,1,3.16.9,3.25,3.25,0,0,1,1.08,2.67A3.51,3.51,0,0,1,82.71,94.89Zm10.76,2.67H92.09v2.36H89.73V97.56H84.86V95.88l5-7.38h2.23v7.18h1.38Z"/></svg>