<svg id="图层_1" data-name="图层 1" xmlns="http://www.w3.org/2000/svg" viewBox="0 0 149.01 149.01"><defs><style>.cls-1{fill:#fff;}.cls-2{fill:#84dfde;}</style></defs><title>2</title><rect class="cls-1" width="149.01" height="149.01" rx="33.49"/><path class="cls-2" d="M86.1,62.89a5.81,5.81,0,0,1-5.81-5.81V39.69h0a5.81,5.81,0,0,1,5.81-5.81l23.24,23.2h0a5.81,5.81,0,0,1-5.81,5.81Z"/><path class="cls-2" d="M79.5,90.49H78.39v3.39h.8a2.67,2.67,0,0,0,1.67-.44,1.57,1.57,0,0,0,.56-1.29A1.59,1.59,0,0,0,81,90.89,2.17,2.17,0,0,0,79.5,90.49Z"/><path class="cls-2" d="M80.29,68.7a5.82,5.82,0,0,1-5.81-5.81v-29h-29a5.81,5.81,0,0,0-5.81,5.81v69.63a5.81,5.81,0,0,0,5.81,5.81h58a5.81,5.81,0,0,0,5.81-5.81V68.7ZM73.1,99.92H70.84v-5.4c0-.26,0-.55,0-.88s0-1.22.11-2.66h-.07l-3,8.94H65.72L63,91H62.9c.1,1.83.15,3,.15,3.65v5.31H60.89V88.5h3.29l2.71,8.74h0L69.8,88.5h3.3Zm9.61-5a4.94,4.94,0,0,1-3.28,1h-1v4.06H76V88.5h3.65a4.82,4.82,0,0,1,3.16.9,3.25,3.25,0,0,1,1.08,2.67A3.51,3.51,0,0,1,82.71,94.89Zm9.19,4.27a5.43,5.43,0,0,1-3.41.92,8.34,8.34,0,0,1-3.3-.62v-2a7.63,7.63,0,0,0,1.46.55,6.19,6.19,0,0,0,1.58.21A3.08,3.08,0,0,0,90,97.76a1.49,1.49,0,0,0,.57-1.3,1.17,1.17,0,0,0-.66-1.14A4.77,4.77,0,0,0,87.82,95H87V93.13h.88a4.11,4.11,0,0,0,1.94-.35,1.26,1.26,0,0,0,.62-1.19c0-.87-.55-1.3-1.63-1.3a3.54,3.54,0,0,0-1.14.19,5.41,5.41,0,0,0-1.3.65l-1.11-1.67a6.19,6.19,0,0,1,3.72-1.12,4.78,4.78,0,0,1,2.8.72,2.29,2.29,0,0,1,1,2,2.66,2.66,0,0,1-.65,1.82,3.37,3.37,0,0,1-1.82,1v0a3.62,3.62,0,0,1,2.1.84,2.35,2.35,0,0,1,.71,1.8A3,3,0,0,1,91.9,99.16Z"/></svg>