<svg width="149.01" height="149.01" xmlns="http://www.w3.org/2000/svg">
 <defs>
  <style>.cls-1{fill:#fff;}.cls-2{fill:#84dfde;}</style>
 </defs>
 <title>1</title>
 <g>
  <title>background</title>
  <rect fill="none" id="canvas_background" height="602" width="802" y="-1" x="-1"/>
 </g>
 <g>
  <title>Layer 1</title>
  <rect fill="#6D97AB" id="svg_1" rx="33.49" height="149.01" width="149.01" class="cls-1"/>
  <path id="svg_2" d="m86.1,62.89a5.81,5.81 0 0 1 -5.81,-5.81l0,-17.39l0,0a5.81,5.81 0 0 1 5.81,-5.81l23.24,23.2l0,0a5.81,5.81 0 0 1 -5.81,5.81l-17.43,0z" class="cls-2"/>
  <path id="svg_3" d="m79.5,90.49l-1.1,0l0,3.39l0.79,0a2.67,2.67 0 0 0 1.67,-0.44a1.57,1.57 0 0 0 0.56,-1.29a1.59,1.59 0 0 0 -0.42,-1.26a2.17,2.17 0 0 0 -1.5,-0.4z" class="cls-2"/>
  <path id="svg_4" d="m89.08,92.52l-2.08,3.16l2.75,0l0,-1.94c0,-0.32 0,-0.79 0,-1.4s0,-1 0.06,-1.07l-0.06,0a9.09,9.09 0 0 1 -0.67,1.25z" class="cls-2"/>
  <path id="svg_5" d="m80.67462,68.31538a5.82,5.82 0 0 1 -5.81,-5.81l0,-29l-29,0a5.81,5.81 0 0 0 -5.81,5.81l0,69.63a5.81,5.81 0 0 0 5.81,5.81l58,0a5.81,5.81 0 0 0 5.81,-5.81l0,-40.63l-29,0zm-7.19,31.22l-2.26,0l0,-5.4c0,-0.26 0,-0.55 0,-0.88s0.06,-1.22 0.16,-2.64l-0.07,0l-3,8.94l-2.21,0l-2.72,-8.94l-0.1,0c0.1,1.83 0.15,3 0.15,3.65l0,5.31l-2.16,0l0,-11.46l3.29,0l2.71,8.74l0,0l2.91,-8.74l3.3,0l0,11.42zm9.61,-5a4.94,4.94 0 0 1 -3.28,1l-1,0l0,4.06l-2.43,0l0,-11.48l3.65,0a4.82,4.82 0 0 1 3.16,0.9a3.25,3.25 0 0 1 1.08,2.67a3.51,3.51 0 0 1 -1.18,2.82l0,0.03zm10.76,2.67l-1.38,0l0,2.36l-2.36,0l0,-2.39l-4.87,0l0,-1.68l5,-7.38l2.23,0l0,7.18l1.38,0l0,1.91z" class="cls-2"/>
  <rect id="svg_6" height="17.30769" width="37.30769" y="86.39803" x="58.54347" stroke-opacity="null" stroke-width="null" stroke="null" fill="#84D3DB"/>
  <text stroke="null" transform="matrix(0.9317082166671753,0,0,0.869683265686035,5.884474441409111,11.32488602399826) " xml:space="preserve" text-anchor="start" font-family="'Times New Roman', Times, serif" font-size="24" id="svg_7" y="102.55187" x="52.38962" stroke-opacity="null" stroke-width="0" fill="#ffffff">M4A</text>
 </g>
</svg>